<?xml version="1.0" encoding="UTF-8" standalone="no"?>
<!DOCTYPE svg PUBLIC "-//W3C//DTD SVG 1.1//EN" "http://www.w3.org/Graphics/SVG/1.1/DTD/svg11.dtd">
<!-- Created with Vectornator (http://vectornator.io/) -->
<svg height="100%" stroke-miterlimit="10" style="fill-rule:nonzero;clip-rule:evenodd;stroke-linecap:round;stroke-linejoin:round;" version="1.1" viewBox="0 0 34 34" width="100%" xml:space="preserve" xmlns="http://www.w3.org/2000/svg" xmlns:vectornator="http://vectornator.io" xmlns:xlink="http://www.w3.org/1999/xlink">
<defs/>
<g id="Untitled" vectornator:layerName="Untitled">
<path d="M17 0C7.61116 0 0 7.61116 0 17C0 26.3888 7.61116 34 17 34C26.3888 34 34 26.3888 34 17C34 7.61116 26.3888 0 17 0ZM21.6875 11C22.4009 11 23 11.5239 23 12.2188C23 12.5517 22.8132 12.8956 22.6562 13.1562L17.0625 22.2812C16.7771 22.7445 16.3432 23 15.8438 23C15.33 23 14.9192 22.7757 14.5625 22.3125L11.3438 18.2812C11.1011 17.9773 11 17.6767 11 17.3438C11 16.6054 11.582 16.0625 12.2812 16.0625C12.7236 16.0625 13.0727 16.2486 13.3438 16.625L15.7812 19.7812L20.5625 11.7188C20.8337 11.2555 21.2451 11 21.6875 11Z" fill="#1a1b22" fill-rule="nonzero" opacity="0.297406" stroke="none"/>
</g>
</svg>
